<mxfile host="app.diagrams.net" agent="Mozilla/5.0 (Windows NT 10.0; Win64; x64) AppleWebKit/537.36 (KHTML, like Gecko) Chrome/135.0.0.0 Safari/537.36" version="26.2.14">
  <diagram name="Página-1" id="k1ScEdYD6Tme0ViCy-KO">
    <mxGraphModel dx="2037" dy="1061" grid="1" gridSize="10" guides="1" tooltips="1" connect="1" arrows="1" fold="1" page="1" pageScale="1" pageWidth="827" pageHeight="1169" math="0" shadow="0">
      <root>
        <mxCell id="0" />
        <mxCell id="1" parent="0" />
        <mxCell id="2" value="User" style="shape=umlLifeline;perimeter=lifelinePerimeter;whiteSpace=wrap;container=1;dropTarget=0;collapsible=0;recursiveResize=0;outlineConnect=0;portConstraint=eastwest;newEdgeStyle={&quot;edgeStyle&quot;:&quot;elbowEdgeStyle&quot;,&quot;elbow&quot;:&quot;vertical&quot;,&quot;curved&quot;:0,&quot;rounded&quot;:0};size=65;" parent="1" vertex="1">
          <mxGeometry width="150" height="576" as="geometry" />
        </mxCell>
        <mxCell id="3" value="&quot;CloudFront Distribution&quot;" style="shape=umlLifeline;perimeter=lifelinePerimeter;whiteSpace=wrap;container=1;dropTarget=0;collapsible=0;recursiveResize=0;outlineConnect=0;portConstraint=eastwest;newEdgeStyle={&quot;edgeStyle&quot;:&quot;elbowEdgeStyle&quot;,&quot;elbow&quot;:&quot;vertical&quot;,&quot;curved&quot;:0,&quot;rounded&quot;:0};size=65;" parent="1" vertex="1">
          <mxGeometry x="200" width="199" height="576" as="geometry" />
        </mxCell>
        <mxCell id="4" value="&quot;Lambda@Edge (Quando‑Authorizer)&quot;" style="shape=umlLifeline;perimeter=lifelinePerimeter;whiteSpace=wrap;container=1;dropTarget=0;collapsible=0;recursiveResize=0;outlineConnect=0;portConstraint=eastwest;newEdgeStyle={&quot;edgeStyle&quot;:&quot;elbowEdgeStyle&quot;,&quot;elbow&quot;:&quot;vertical&quot;,&quot;curved&quot;:0,&quot;rounded&quot;:0};size=65;" parent="1" vertex="1">
          <mxGeometry x="470" width="291" height="576" as="geometry" />
        </mxCell>
        <mxCell id="5" value="&quot;aquario‑api (Service A/B)&quot;" style="shape=umlLifeline;perimeter=lifelinePerimeter;whiteSpace=wrap;container=1;dropTarget=0;collapsible=0;recursiveResize=0;outlineConnect=0;portConstraint=eastwest;newEdgeStyle={&quot;edgeStyle&quot;:&quot;elbowEdgeStyle&quot;,&quot;elbow&quot;:&quot;vertical&quot;,&quot;curved&quot;:0,&quot;rounded&quot;:0};size=65;" parent="1" vertex="1">
          <mxGeometry x="811" width="208" height="576" as="geometry" />
        </mxCell>
        <mxCell id="6" value="&quot;Quando‑Cache‑Invalidator (Invalidation Service)&quot;" style="shape=umlLifeline;perimeter=lifelinePerimeter;whiteSpace=wrap;container=1;dropTarget=0;collapsible=0;recursiveResize=0;outlineConnect=0;portConstraint=eastwest;newEdgeStyle={&quot;edgeStyle&quot;:&quot;elbowEdgeStyle&quot;,&quot;elbow&quot;:&quot;vertical&quot;,&quot;curved&quot;:0,&quot;rounded&quot;:0};size=65;" parent="1" vertex="1">
          <mxGeometry x="1110" width="370" height="576" as="geometry" />
        </mxCell>
        <mxCell id="7" value="&quot;Invalidation Queue (SQS)&quot;" style="shape=umlLifeline;perimeter=lifelinePerimeter;whiteSpace=wrap;container=1;dropTarget=0;collapsible=0;recursiveResize=0;outlineConnect=0;portConstraint=eastwest;newEdgeStyle={&quot;edgeStyle&quot;:&quot;elbowEdgeStyle&quot;,&quot;elbow&quot;:&quot;vertical&quot;,&quot;curved&quot;:0,&quot;rounded&quot;:0};size=65;" parent="1" vertex="1">
          <mxGeometry x="1530" width="209" height="576" as="geometry" />
        </mxCell>
        <mxCell id="8" value="HTTP Request" style="verticalAlign=bottom;edgeStyle=elbowEdgeStyle;elbow=vertical;curved=0;rounded=0;endArrow=block;" parent="1" source="2" target="3" edge="1">
          <mxGeometry relative="1" as="geometry">
            <Array as="points">
              <mxPoint x="196" y="107" />
            </Array>
          </mxGeometry>
        </mxCell>
        <mxCell id="9" value="Viewer Request" style="verticalAlign=bottom;edgeStyle=elbowEdgeStyle;elbow=vertical;curved=0;rounded=0;endArrow=block;" parent="1" source="3" target="4" edge="1">
          <mxGeometry relative="1" as="geometry">
            <Array as="points">
              <mxPoint x="466" y="159" />
            </Array>
          </mxGeometry>
        </mxCell>
        <mxCell id="10" value="Cache hit? Return cached response" style="verticalAlign=bottom;edgeStyle=elbowEdgeStyle;elbow=vertical;curved=0;rounded=0;dashed=1;dashPattern=2 3;endArrow=block;" parent="1" source="4" target="3" edge="1">
          <mxGeometry relative="1" as="geometry">
            <Array as="points">
              <mxPoint x="469" y="211" />
            </Array>
          </mxGeometry>
        </mxCell>
        <mxCell id="11" value="Forward request" style="verticalAlign=bottom;edgeStyle=elbowEdgeStyle;elbow=vertical;curved=0;rounded=0;endArrow=block;" parent="1" source="4" target="5" edge="1">
          <mxGeometry relative="1" as="geometry">
            <Array as="points">
              <mxPoint x="774" y="263" />
            </Array>
          </mxGeometry>
        </mxCell>
        <mxCell id="12" value="invalidate(serviceName, path, distributionId)" style="verticalAlign=bottom;edgeStyle=elbowEdgeStyle;elbow=vertical;curved=0;rounded=0;endArrow=block;" parent="1" source="5" target="6" edge="1">
          <mxGeometry relative="1" as="geometry">
            <Array as="points">
              <mxPoint x="1114" y="315" />
            </Array>
          </mxGeometry>
        </mxCell>
        <mxCell id="13" value="Enqueue message" style="verticalAlign=bottom;edgeStyle=elbowEdgeStyle;elbow=vertical;curved=0;rounded=0;endArrow=block;" parent="1" source="6" target="7" edge="1">
          <mxGeometry relative="1" as="geometry">
            <Array as="points">
              <mxPoint x="1473" y="367" />
            </Array>
          </mxGeometry>
        </mxCell>
        <mxCell id="14" value="SQS trigger" style="verticalAlign=bottom;edgeStyle=elbowEdgeStyle;elbow=vertical;curved=0;rounded=0;endArrow=block;" parent="1" source="7" target="6" edge="1">
          <mxGeometry relative="1" as="geometry">
            <Array as="points">
              <mxPoint x="1476" y="419" />
            </Array>
          </mxGeometry>
        </mxCell>
        <mxCell id="15" value="Create CloudFront invalidation(paths)" style="verticalAlign=bottom;edgeStyle=elbowEdgeStyle;elbow=vertical;curved=0;rounded=0;endArrow=block;" parent="1" source="6" target="3" edge="1">
          <mxGeometry relative="1" as="geometry">
            <Array as="points">
              <mxPoint x="809" y="471" />
            </Array>
          </mxGeometry>
        </mxCell>
        <mxCell id="ov6ofQgdvlCL2k2Y11iT-18" style="edgeStyle=orthogonalEdgeStyle;rounded=0;orthogonalLoop=1;jettySize=auto;html=1;" edge="1" parent="1" source="ov6ofQgdvlCL2k2Y11iT-15" target="ov6ofQgdvlCL2k2Y11iT-16">
          <mxGeometry relative="1" as="geometry" />
        </mxCell>
        <mxCell id="ov6ofQgdvlCL2k2Y11iT-15" value="Actor" style="shape=umlActor;verticalLabelPosition=bottom;verticalAlign=top;html=1;outlineConnect=0;" vertex="1" parent="1">
          <mxGeometry x="170" y="730" width="30" height="60" as="geometry" />
        </mxCell>
        <mxCell id="ov6ofQgdvlCL2k2Y11iT-19" style="edgeStyle=orthogonalEdgeStyle;rounded=0;orthogonalLoop=1;jettySize=auto;html=1;" edge="1" parent="1" source="ov6ofQgdvlCL2k2Y11iT-16">
          <mxGeometry relative="1" as="geometry">
            <mxPoint x="490" y="760" as="targetPoint" />
          </mxGeometry>
        </mxCell>
        <mxCell id="ov6ofQgdvlCL2k2Y11iT-16" value="" style="outlineConnect=0;dashed=0;verticalLabelPosition=bottom;verticalAlign=top;align=center;html=1;shape=mxgraph.aws3.cloudfront;fillColor=#F58536;gradientColor=none;" vertex="1" parent="1">
          <mxGeometry x="310" y="713.5" width="76.5" height="93" as="geometry" />
        </mxCell>
        <mxCell id="ov6ofQgdvlCL2k2Y11iT-22" style="edgeStyle=orthogonalEdgeStyle;rounded=0;orthogonalLoop=1;jettySize=auto;html=1;" edge="1" parent="1" source="ov6ofQgdvlCL2k2Y11iT-20" target="ov6ofQgdvlCL2k2Y11iT-21">
          <mxGeometry relative="1" as="geometry" />
        </mxCell>
        <mxCell id="ov6ofQgdvlCL2k2Y11iT-20" value="" style="outlineConnect=0;dashed=0;verticalLabelPosition=bottom;verticalAlign=top;align=center;html=1;shape=mxgraph.aws3.lambda_function;fillColor=#F58534;gradientColor=none;" vertex="1" parent="1">
          <mxGeometry x="490" y="724" width="69" height="72" as="geometry" />
        </mxCell>
        <mxCell id="ov6ofQgdvlCL2k2Y11iT-24" style="edgeStyle=orthogonalEdgeStyle;rounded=0;orthogonalLoop=1;jettySize=auto;html=1;" edge="1" parent="1" source="ov6ofQgdvlCL2k2Y11iT-21" target="ov6ofQgdvlCL2k2Y11iT-23">
          <mxGeometry relative="1" as="geometry" />
        </mxCell>
        <mxCell id="ov6ofQgdvlCL2k2Y11iT-21" value="" style="shape=image;html=1;verticalAlign=top;verticalLabelPosition=bottom;labelBackgroundColor=#ffffff;imageAspect=0;aspect=fixed;image=https://cdn1.iconfinder.com/data/icons/ionicons-fill-vol-2/512/logo-npm-128.png" vertex="1" parent="1">
          <mxGeometry x="460.5" y="930" width="128" height="128" as="geometry" />
        </mxCell>
        <mxCell id="ov6ofQgdvlCL2k2Y11iT-23" value="" style="sketch=0;points=[[0,0,0],[0.25,0,0],[0.5,0,0],[0.75,0,0],[1,0,0],[0,1,0],[0.25,1,0],[0.5,1,0],[0.75,1,0],[1,1,0],[0,0.25,0],[0,0.5,0],[0,0.75,0],[1,0.25,0],[1,0.5,0],[1,0.75,0]];outlineConnect=0;fontColor=#232F3E;fillColor=#E7157B;strokeColor=#ffffff;dashed=0;verticalLabelPosition=bottom;verticalAlign=top;align=center;html=1;fontSize=12;fontStyle=0;aspect=fixed;shape=mxgraph.aws4.resourceIcon;resIcon=mxgraph.aws4.sqs;" vertex="1" parent="1">
          <mxGeometry x="700" y="955" width="78" height="78" as="geometry" />
        </mxCell>
        <mxCell id="ov6ofQgdvlCL2k2Y11iT-25" value="" style="outlineConnect=0;dashed=0;verticalLabelPosition=bottom;verticalAlign=top;align=center;html=1;shape=mxgraph.aws3.cloudfront;fillColor=#F58536;gradientColor=none;" vertex="1" parent="1">
          <mxGeometry x="827" y="730" width="76.5" height="93" as="geometry" />
        </mxCell>
        <mxCell id="ov6ofQgdvlCL2k2Y11iT-26" style="edgeStyle=orthogonalEdgeStyle;rounded=0;orthogonalLoop=1;jettySize=auto;html=1;entryX=0;entryY=0.5;entryDx=0;entryDy=0;entryPerimeter=0;" edge="1" parent="1" source="ov6ofQgdvlCL2k2Y11iT-23" target="ov6ofQgdvlCL2k2Y11iT-25">
          <mxGeometry relative="1" as="geometry" />
        </mxCell>
      </root>
    </mxGraphModel>
  </diagram>
</mxfile>
